# xmcd
#
# Track frame offsets:
#	150
#	11432
#	21975
#	35656
#	47781
#	59497
#	73509
#	85704
#	96761
#	107470
#	120044
#	132244
#	146241
#	156882
#	170020
#	182791
#	200110
#	211396
#	228006
#	243137
#	255514
#
# Disc length: 3590 seconds
#
# Revision: 1
# Processed by: cddbd v1.5.1PL2 Copyright (c) Steve Scherf et al.
# Submitted via: CDmax 2.0
#
DISCID=1d0e0415
DTITLE=Diverse Interpreten - Music After Midnigth
DYEAR=1900
DGENRE=Blues
TTITLE0=WHATA DIFFERENCEA DATMADE - DINAH WASHINGTON
TTITLE1=ENDL ESSLY - BROOK BENTON
TTITLE2=MISTY  - SARAH VAUGHAN L
TTITLE3=SMOKE GETS IN TOUR EYES - THE PLATTERS
TTITLE4=ROMANCE IN THE DARK - DAMITA and JO 1
TTITLE5=I APOL OGISE - BILLY ECKSTINE
TTITLE6=UNFORGETTABLE - DINAH WASHINGTON
TTITLE7=IT'S JUSTA MATTER OF TIME - BROOK BENTON
TTITLE8=BROKEN HEARTED MELODY - SARAH VAUGHAN
TTITLE9=TWILIGHT TIME - THE PLATTERS
TTITLE10=YOU WON'TLETME GO  - DAMIT& JO
TTITLE11=GUILTY - BILLY ECKSTINE ..
TTITLE12=I SHOULD HAVE KISSED HIM MORE -  SARAH VAUGHAN
TTITLE13=I'M SORRY - THE PLATTERS
TTITLE14=CHEEK TO HEEK - SARAH VAUGHAN and BILLY ECKSTINE
TTITLE15=JOANNA - SCOTT WALKER
TTITLE16=SOFTLY - DINAH WASHINGTON
TTITLE17=STARDUSTSYD - LAWRENCE ORCHESTRA
TTITLE18=DEEP PURPLE SYD - LAWRENCE ORCHESTRA
TTITLE19=MYPRAYER - THE PLATTERS
TTITLE20=SMOKE GETS IN TOUR EYES - THE CASCADING STRINGS
EXTD=
EXTT0=
EXTT1=
EXTT2=
EXTT3=
EXTT4=
EXTT5=
EXTT6=
EXTT7=
EXTT8=
EXTT9=
EXTT10=
EXTT11=
EXTT12=
EXTT13=
EXTT14=
EXTT15=
EXTT16=
EXTT17=
EXTT18=
EXTT19=
EXTT20=
PLAYORDER=
